<mxfile host="app.diagrams.net" agent="Mozilla/5.0 (Windows NT 10.0; Win64; x64; rv:130.0) Gecko/20100101 Firefox/130.0" version="24.7.16">
  <diagram id="C5RBs43oDa-KdzZeNtuy" name="Page-1">
    <mxGraphModel dx="1877" dy="558" grid="1" gridSize="10" guides="1" tooltips="1" connect="1" arrows="1" fold="1" page="1" pageScale="1" pageWidth="827" pageHeight="1169" math="0" shadow="0">
      <root>
        <mxCell id="WIyWlLk6GJQsqaUBKTNV-0" />
        <mxCell id="WIyWlLk6GJQsqaUBKTNV-1" parent="WIyWlLk6GJQsqaUBKTNV-0" />
        <mxCell id="mrrCmg68fBbSFs27myiZ-0" style="edgeStyle=orthogonalEdgeStyle;rounded=0;orthogonalLoop=1;jettySize=auto;html=1;entryX=0.5;entryY=1;entryDx=0;entryDy=0;" edge="1" parent="WIyWlLk6GJQsqaUBKTNV-1" source="mrrCmg68fBbSFs27myiZ-6" target="mrrCmg68fBbSFs27myiZ-10">
          <mxGeometry relative="1" as="geometry" />
        </mxCell>
        <mxCell id="mrrCmg68fBbSFs27myiZ-1" style="edgeStyle=orthogonalEdgeStyle;rounded=0;orthogonalLoop=1;jettySize=auto;html=1;" edge="1" parent="WIyWlLk6GJQsqaUBKTNV-1" source="mrrCmg68fBbSFs27myiZ-6" target="mrrCmg68fBbSFs27myiZ-11">
          <mxGeometry relative="1" as="geometry" />
        </mxCell>
        <mxCell id="mrrCmg68fBbSFs27myiZ-2" style="edgeStyle=orthogonalEdgeStyle;rounded=0;orthogonalLoop=1;jettySize=auto;html=1;" edge="1" parent="WIyWlLk6GJQsqaUBKTNV-1" source="mrrCmg68fBbSFs27myiZ-6" target="mrrCmg68fBbSFs27myiZ-7">
          <mxGeometry relative="1" as="geometry" />
        </mxCell>
        <mxCell id="mrrCmg68fBbSFs27myiZ-3" style="edgeStyle=orthogonalEdgeStyle;rounded=0;orthogonalLoop=1;jettySize=auto;html=1;entryX=0.5;entryY=1;entryDx=0;entryDy=0;" edge="1" parent="WIyWlLk6GJQsqaUBKTNV-1" source="mrrCmg68fBbSFs27myiZ-6" target="mrrCmg68fBbSFs27myiZ-8">
          <mxGeometry relative="1" as="geometry">
            <Array as="points">
              <mxPoint x="370" y="70" />
            </Array>
          </mxGeometry>
        </mxCell>
        <mxCell id="mrrCmg68fBbSFs27myiZ-4" style="edgeStyle=orthogonalEdgeStyle;rounded=0;orthogonalLoop=1;jettySize=auto;html=1;entryX=0.5;entryY=1;entryDx=0;entryDy=0;" edge="1" parent="WIyWlLk6GJQsqaUBKTNV-1" source="mrrCmg68fBbSFs27myiZ-6" target="mrrCmg68fBbSFs27myiZ-9">
          <mxGeometry relative="1" as="geometry" />
        </mxCell>
        <mxCell id="mrrCmg68fBbSFs27myiZ-5" style="edgeStyle=orthogonalEdgeStyle;rounded=0;orthogonalLoop=1;jettySize=auto;html=1;entryX=0.5;entryY=0;entryDx=0;entryDy=0;" edge="1" parent="WIyWlLk6GJQsqaUBKTNV-1" source="mrrCmg68fBbSFs27myiZ-6" target="mrrCmg68fBbSFs27myiZ-14">
          <mxGeometry relative="1" as="geometry" />
        </mxCell>
        <mxCell id="mrrCmg68fBbSFs27myiZ-6" value="Member" style="rounded=0;whiteSpace=wrap;html=1;fillColor=#f8cecc;strokeColor=#b85450;" vertex="1" parent="WIyWlLk6GJQsqaUBKTNV-1">
          <mxGeometry x="250" y="190" width="120" height="60" as="geometry" />
        </mxCell>
        <mxCell id="mrrCmg68fBbSFs27myiZ-7" value="name" style="ellipse;whiteSpace=wrap;html=1;fillColor=#a0522d;fontColor=#ffffff;strokeColor=#6D1F00;" vertex="1" parent="WIyWlLk6GJQsqaUBKTNV-1">
          <mxGeometry x="200" y="20" width="100" height="50" as="geometry" />
        </mxCell>
        <mxCell id="mrrCmg68fBbSFs27myiZ-8" value="address" style="ellipse;whiteSpace=wrap;html=1;fillColor=#a0522d;fontColor=#ffffff;strokeColor=#6D1F00;" vertex="1" parent="WIyWlLk6GJQsqaUBKTNV-1">
          <mxGeometry x="400" y="20" width="100" height="50" as="geometry" />
        </mxCell>
        <mxCell id="mrrCmg68fBbSFs27myiZ-9" value="email&lt;div&gt;-----------&lt;/div&gt;" style="ellipse;whiteSpace=wrap;html=1;fillColor=#a0522d;fontColor=#ffffff;strokeColor=#6D1F00;" vertex="1" parent="WIyWlLk6GJQsqaUBKTNV-1">
          <mxGeometry x="490" y="180" width="100" height="60" as="geometry" />
        </mxCell>
        <mxCell id="mrrCmg68fBbSFs27myiZ-10" value="gender" style="ellipse;whiteSpace=wrap;html=1;fillColor=#a0522d;fontColor=#ffffff;strokeColor=#6D1F00;" vertex="1" parent="WIyWlLk6GJQsqaUBKTNV-1">
          <mxGeometry x="-90" y="190" width="100" height="60" as="geometry" />
        </mxCell>
        <mxCell id="mrrCmg68fBbSFs27myiZ-11" value="birthday" style="ellipse;whiteSpace=wrap;html=1;fillColor=#a0522d;fontColor=#ffffff;strokeColor=#6D1F00;" vertex="1" parent="WIyWlLk6GJQsqaUBKTNV-1">
          <mxGeometry x="10" y="40" width="100" height="60" as="geometry" />
        </mxCell>
        <mxCell id="mrrCmg68fBbSFs27myiZ-12" value="minor" style="rounded=0;whiteSpace=wrap;html=1;fillColor=#f8cecc;strokeColor=#b85450;" vertex="1" parent="WIyWlLk6GJQsqaUBKTNV-1">
          <mxGeometry x="80" y="440" width="120" height="60" as="geometry" />
        </mxCell>
        <mxCell id="mrrCmg68fBbSFs27myiZ-13" style="edgeStyle=orthogonalEdgeStyle;rounded=0;orthogonalLoop=1;jettySize=auto;html=1;entryX=0.5;entryY=0;entryDx=0;entryDy=0;" edge="1" parent="WIyWlLk6GJQsqaUBKTNV-1" source="mrrCmg68fBbSFs27myiZ-14" target="mrrCmg68fBbSFs27myiZ-12">
          <mxGeometry relative="1" as="geometry" />
        </mxCell>
        <mxCell id="mrrCmg68fBbSFs27myiZ-14" value="parent" style="rhombus;whiteSpace=wrap;html=1;fillColor=#d5e8d4;strokeColor=#82b366;" vertex="1" parent="WIyWlLk6GJQsqaUBKTNV-1">
          <mxGeometry x="160" y="310" width="100" height="60" as="geometry" />
        </mxCell>
        <mxCell id="mrrCmg68fBbSFs27myiZ-15" style="edgeStyle=orthogonalEdgeStyle;rounded=0;orthogonalLoop=1;jettySize=auto;html=1;entryX=0.75;entryY=1;entryDx=0;entryDy=0;" edge="1" parent="WIyWlLk6GJQsqaUBKTNV-1" source="mrrCmg68fBbSFs27myiZ-16" target="mrrCmg68fBbSFs27myiZ-6">
          <mxGeometry relative="1" as="geometry" />
        </mxCell>
        <mxCell id="mrrCmg68fBbSFs27myiZ-16" value="Courses" style="rounded=0;whiteSpace=wrap;html=1;fillColor=#f8cecc;strokeColor=#b85450;" vertex="1" parent="WIyWlLk6GJQsqaUBKTNV-1">
          <mxGeometry x="435" y="585" width="120" height="60" as="geometry" />
        </mxCell>
        <mxCell id="mrrCmg68fBbSFs27myiZ-17" style="edgeStyle=orthogonalEdgeStyle;rounded=0;orthogonalLoop=1;jettySize=auto;html=1;entryX=0.25;entryY=1;entryDx=0;entryDy=0;" edge="1" parent="WIyWlLk6GJQsqaUBKTNV-1" source="mrrCmg68fBbSFs27myiZ-18" target="mrrCmg68fBbSFs27myiZ-16">
          <mxGeometry relative="1" as="geometry" />
        </mxCell>
        <mxCell id="mrrCmg68fBbSFs27myiZ-18" value="course number&lt;div&gt;-------------------&lt;/div&gt;" style="ellipse;whiteSpace=wrap;html=1;fillColor=#a0522d;fontColor=#ffffff;strokeColor=#6D1F00;" vertex="1" parent="WIyWlLk6GJQsqaUBKTNV-1">
          <mxGeometry x="140" y="660" width="100" height="50" as="geometry" />
        </mxCell>
        <mxCell id="mrrCmg68fBbSFs27myiZ-19" style="edgeStyle=orthogonalEdgeStyle;rounded=0;orthogonalLoop=1;jettySize=auto;html=1;" edge="1" parent="WIyWlLk6GJQsqaUBKTNV-1" source="mrrCmg68fBbSFs27myiZ-20" target="mrrCmg68fBbSFs27myiZ-16">
          <mxGeometry relative="1" as="geometry" />
        </mxCell>
        <mxCell id="mrrCmg68fBbSFs27myiZ-20" value="title" style="ellipse;whiteSpace=wrap;html=1;fillColor=#a0522d;fontColor=#ffffff;strokeColor=#6D1F00;" vertex="1" parent="WIyWlLk6GJQsqaUBKTNV-1">
          <mxGeometry x="255" y="760" width="110" height="60" as="geometry" />
        </mxCell>
        <mxCell id="mrrCmg68fBbSFs27myiZ-21" style="edgeStyle=orthogonalEdgeStyle;rounded=0;orthogonalLoop=1;jettySize=auto;html=1;entryX=0.75;entryY=1;entryDx=0;entryDy=0;" edge="1" parent="WIyWlLk6GJQsqaUBKTNV-1" source="mrrCmg68fBbSFs27myiZ-22" target="mrrCmg68fBbSFs27myiZ-16">
          <mxGeometry relative="1" as="geometry">
            <Array as="points">
              <mxPoint x="550" y="875" />
              <mxPoint x="550" y="710" />
              <mxPoint x="525" y="710" />
            </Array>
          </mxGeometry>
        </mxCell>
        <mxCell id="mrrCmg68fBbSFs27myiZ-22" value="target" style="ellipse;whiteSpace=wrap;html=1;fillColor=#a0522d;fontColor=#ffffff;strokeColor=#6D1F00;" vertex="1" parent="WIyWlLk6GJQsqaUBKTNV-1">
          <mxGeometry x="410" y="850" width="100" height="50" as="geometry" />
        </mxCell>
        <mxCell id="mrrCmg68fBbSFs27myiZ-23" style="edgeStyle=orthogonalEdgeStyle;rounded=0;orthogonalLoop=1;jettySize=auto;html=1;entryX=0.5;entryY=0;entryDx=0;entryDy=0;" edge="1" parent="WIyWlLk6GJQsqaUBKTNV-1" source="mrrCmg68fBbSFs27myiZ-24" target="mrrCmg68fBbSFs27myiZ-32">
          <mxGeometry relative="1" as="geometry" />
        </mxCell>
        <mxCell id="mrrCmg68fBbSFs27myiZ-24" value="trainer" style="rounded=0;whiteSpace=wrap;html=1;fillColor=#f8cecc;strokeColor=#b85450;" vertex="1" parent="WIyWlLk6GJQsqaUBKTNV-1">
          <mxGeometry x="580" y="320" width="120" height="60" as="geometry" />
        </mxCell>
        <mxCell id="mrrCmg68fBbSFs27myiZ-25" style="edgeStyle=orthogonalEdgeStyle;rounded=0;orthogonalLoop=1;jettySize=auto;html=1;entryX=1;entryY=0.25;entryDx=0;entryDy=0;" edge="1" parent="WIyWlLk6GJQsqaUBKTNV-1" source="mrrCmg68fBbSFs27myiZ-26" target="mrrCmg68fBbSFs27myiZ-24">
          <mxGeometry relative="1" as="geometry" />
        </mxCell>
        <mxCell id="mrrCmg68fBbSFs27myiZ-26" value="name&lt;div&gt;------------&lt;/div&gt;" style="ellipse;whiteSpace=wrap;html=1;fillColor=#a0522d;fontColor=#ffffff;strokeColor=#6D1F00;" vertex="1" parent="WIyWlLk6GJQsqaUBKTNV-1">
          <mxGeometry x="685" y="190" width="110" height="50" as="geometry" />
        </mxCell>
        <mxCell id="mrrCmg68fBbSFs27myiZ-27" style="edgeStyle=orthogonalEdgeStyle;rounded=0;orthogonalLoop=1;jettySize=auto;html=1;entryX=1;entryY=0.5;entryDx=0;entryDy=0;" edge="1" parent="WIyWlLk6GJQsqaUBKTNV-1" source="mrrCmg68fBbSFs27myiZ-28" target="mrrCmg68fBbSFs27myiZ-24">
          <mxGeometry relative="1" as="geometry" />
        </mxCell>
        <mxCell id="mrrCmg68fBbSFs27myiZ-28" value="license" style="ellipse;whiteSpace=wrap;html=1;fillColor=#a0522d;fontColor=#ffffff;strokeColor=#6D1F00;" vertex="1" parent="WIyWlLk6GJQsqaUBKTNV-1">
          <mxGeometry x="810" y="240" width="100" height="60" as="geometry" />
        </mxCell>
        <mxCell id="mrrCmg68fBbSFs27myiZ-29" style="edgeStyle=orthogonalEdgeStyle;rounded=0;orthogonalLoop=1;jettySize=auto;html=1;entryX=1;entryY=0.75;entryDx=0;entryDy=0;" edge="1" parent="WIyWlLk6GJQsqaUBKTNV-1" source="mrrCmg68fBbSFs27myiZ-30" target="mrrCmg68fBbSFs27myiZ-24">
          <mxGeometry relative="1" as="geometry" />
        </mxCell>
        <mxCell id="mrrCmg68fBbSFs27myiZ-30" value="courses" style="ellipse;whiteSpace=wrap;html=1;fillColor=#a0522d;fontColor=#ffffff;strokeColor=#6D1F00;" vertex="1" parent="WIyWlLk6GJQsqaUBKTNV-1">
          <mxGeometry x="795" y="380" width="110" height="60" as="geometry" />
        </mxCell>
        <mxCell id="mrrCmg68fBbSFs27myiZ-31" style="edgeStyle=orthogonalEdgeStyle;rounded=0;orthogonalLoop=1;jettySize=auto;html=1;entryX=0.5;entryY=0;entryDx=0;entryDy=0;" edge="1" parent="WIyWlLk6GJQsqaUBKTNV-1" source="mrrCmg68fBbSFs27myiZ-32" target="mrrCmg68fBbSFs27myiZ-16">
          <mxGeometry relative="1" as="geometry" />
        </mxCell>
        <mxCell id="mrrCmg68fBbSFs27myiZ-32" value="teaches" style="rhombus;whiteSpace=wrap;html=1;fillColor=#d5e8d4;strokeColor=#82b366;" vertex="1" parent="WIyWlLk6GJQsqaUBKTNV-1">
          <mxGeometry x="475" y="430" width="105" height="80" as="geometry" />
        </mxCell>
        <mxCell id="mrrCmg68fBbSFs27myiZ-33" style="edgeStyle=orthogonalEdgeStyle;rounded=0;orthogonalLoop=1;jettySize=auto;html=1;entryX=0.5;entryY=0;entryDx=0;entryDy=0;" edge="1" parent="WIyWlLk6GJQsqaUBKTNV-1" source="mrrCmg68fBbSFs27myiZ-34" target="mrrCmg68fBbSFs27myiZ-50">
          <mxGeometry relative="1" as="geometry" />
        </mxCell>
        <mxCell id="mrrCmg68fBbSFs27myiZ-34" value="Area" style="rounded=0;whiteSpace=wrap;html=1;fillColor=#f8cecc;strokeColor=#b85450;" vertex="1" parent="WIyWlLk6GJQsqaUBKTNV-1">
          <mxGeometry x="730" y="562.5" width="120" height="60" as="geometry" />
        </mxCell>
        <mxCell id="mrrCmg68fBbSFs27myiZ-35" value="fitness" style="rounded=0;whiteSpace=wrap;html=1;fillColor=#f8cecc;strokeColor=#b85450;" vertex="1" parent="WIyWlLk6GJQsqaUBKTNV-1">
          <mxGeometry x="1330" y="360" width="120" height="60" as="geometry" />
        </mxCell>
        <mxCell id="mrrCmg68fBbSFs27myiZ-36" value="wrestling" style="rounded=0;whiteSpace=wrap;html=1;fillColor=#f8cecc;strokeColor=#b85450;" vertex="1" parent="WIyWlLk6GJQsqaUBKTNV-1">
          <mxGeometry x="1360" y="505" width="120" height="60" as="geometry" />
        </mxCell>
        <mxCell id="mrrCmg68fBbSFs27myiZ-37" value="athletics" style="rounded=0;whiteSpace=wrap;html=1;fillColor=#f8cecc;strokeColor=#b85450;" vertex="1" parent="WIyWlLk6GJQsqaUBKTNV-1">
          <mxGeometry x="1330" y="700" width="120" height="60" as="geometry" />
        </mxCell>
        <mxCell id="mrrCmg68fBbSFs27myiZ-38" style="edgeStyle=orthogonalEdgeStyle;rounded=0;orthogonalLoop=1;jettySize=auto;html=1;" edge="1" parent="WIyWlLk6GJQsqaUBKTNV-1" source="mrrCmg68fBbSFs27myiZ-40" target="mrrCmg68fBbSFs27myiZ-35">
          <mxGeometry relative="1" as="geometry" />
        </mxCell>
        <mxCell id="mrrCmg68fBbSFs27myiZ-39" style="edgeStyle=orthogonalEdgeStyle;rounded=0;orthogonalLoop=1;jettySize=auto;html=1;entryX=1;entryY=0.25;entryDx=0;entryDy=0;" edge="1" parent="WIyWlLk6GJQsqaUBKTNV-1" source="mrrCmg68fBbSFs27myiZ-40" target="mrrCmg68fBbSFs27myiZ-34">
          <mxGeometry relative="1" as="geometry" />
        </mxCell>
        <mxCell id="mrrCmg68fBbSFs27myiZ-40" value="belong" style="rhombus;whiteSpace=wrap;html=1;fillColor=#d5e8d4;strokeColor=#82b366;" vertex="1" parent="WIyWlLk6GJQsqaUBKTNV-1">
          <mxGeometry x="1010" y="390" width="100" height="75" as="geometry" />
        </mxCell>
        <mxCell id="mrrCmg68fBbSFs27myiZ-41" style="edgeStyle=orthogonalEdgeStyle;rounded=0;orthogonalLoop=1;jettySize=auto;html=1;entryX=0;entryY=0.5;entryDx=0;entryDy=0;" edge="1" parent="WIyWlLk6GJQsqaUBKTNV-1" source="mrrCmg68fBbSFs27myiZ-43" target="mrrCmg68fBbSFs27myiZ-36">
          <mxGeometry relative="1" as="geometry" />
        </mxCell>
        <mxCell id="mrrCmg68fBbSFs27myiZ-42" style="edgeStyle=orthogonalEdgeStyle;rounded=0;orthogonalLoop=1;jettySize=auto;html=1;entryX=1;entryY=0.5;entryDx=0;entryDy=0;" edge="1" parent="WIyWlLk6GJQsqaUBKTNV-1" source="mrrCmg68fBbSFs27myiZ-43" target="mrrCmg68fBbSFs27myiZ-34">
          <mxGeometry relative="1" as="geometry" />
        </mxCell>
        <mxCell id="mrrCmg68fBbSFs27myiZ-43" value="belong" style="rhombus;whiteSpace=wrap;html=1;fillColor=#d5e8d4;strokeColor=#82b366;" vertex="1" parent="WIyWlLk6GJQsqaUBKTNV-1">
          <mxGeometry x="1010" y="540" width="100" height="75" as="geometry" />
        </mxCell>
        <mxCell id="mrrCmg68fBbSFs27myiZ-44" style="edgeStyle=orthogonalEdgeStyle;rounded=0;orthogonalLoop=1;jettySize=auto;html=1;" edge="1" parent="WIyWlLk6GJQsqaUBKTNV-1" source="mrrCmg68fBbSFs27myiZ-46" target="mrrCmg68fBbSFs27myiZ-37">
          <mxGeometry relative="1" as="geometry" />
        </mxCell>
        <mxCell id="mrrCmg68fBbSFs27myiZ-45" style="edgeStyle=orthogonalEdgeStyle;rounded=0;orthogonalLoop=1;jettySize=auto;html=1;entryX=1;entryY=0.75;entryDx=0;entryDy=0;" edge="1" parent="WIyWlLk6GJQsqaUBKTNV-1" source="mrrCmg68fBbSFs27myiZ-46" target="mrrCmg68fBbSFs27myiZ-34">
          <mxGeometry relative="1" as="geometry" />
        </mxCell>
        <mxCell id="mrrCmg68fBbSFs27myiZ-46" value="belong" style="rhombus;whiteSpace=wrap;html=1;fillColor=#d5e8d4;strokeColor=#82b366;" vertex="1" parent="WIyWlLk6GJQsqaUBKTNV-1">
          <mxGeometry x="1090" y="670" width="100" height="75" as="geometry" />
        </mxCell>
        <mxCell id="mrrCmg68fBbSFs27myiZ-47" style="edgeStyle=orthogonalEdgeStyle;rounded=0;orthogonalLoop=1;jettySize=auto;html=1;" edge="1" parent="WIyWlLk6GJQsqaUBKTNV-1" source="mrrCmg68fBbSFs27myiZ-49" target="mrrCmg68fBbSFs27myiZ-34">
          <mxGeometry relative="1" as="geometry" />
        </mxCell>
        <mxCell id="mrrCmg68fBbSFs27myiZ-48" style="edgeStyle=orthogonalEdgeStyle;rounded=0;orthogonalLoop=1;jettySize=auto;html=1;entryX=1;entryY=0.5;entryDx=0;entryDy=0;" edge="1" parent="WIyWlLk6GJQsqaUBKTNV-1" source="mrrCmg68fBbSFs27myiZ-49" target="mrrCmg68fBbSFs27myiZ-16">
          <mxGeometry relative="1" as="geometry" />
        </mxCell>
        <mxCell id="mrrCmg68fBbSFs27myiZ-49" value="belong" style="rhombus;whiteSpace=wrap;html=1;fillColor=#d5e8d4;strokeColor=#82b366;" vertex="1" parent="WIyWlLk6GJQsqaUBKTNV-1">
          <mxGeometry x="600" y="562.5" width="100" height="75" as="geometry" />
        </mxCell>
        <mxCell id="mrrCmg68fBbSFs27myiZ-50" value="name&lt;div&gt;---------------&lt;/div&gt;" style="ellipse;whiteSpace=wrap;html=1;fillColor=#a0522d;fontColor=#ffffff;strokeColor=#6D1F00;" vertex="1" parent="WIyWlLk6GJQsqaUBKTNV-1">
          <mxGeometry x="710" y="660" width="100" height="60" as="geometry" />
        </mxCell>
        <mxCell id="mrrCmg68fBbSFs27myiZ-51" style="edgeStyle=orthogonalEdgeStyle;rounded=0;orthogonalLoop=1;jettySize=auto;html=1;entryX=0.75;entryY=1;entryDx=0;entryDy=0;" edge="1" parent="WIyWlLk6GJQsqaUBKTNV-1" source="mrrCmg68fBbSFs27myiZ-52" target="mrrCmg68fBbSFs27myiZ-34">
          <mxGeometry relative="1" as="geometry" />
        </mxCell>
        <mxCell id="mrrCmg68fBbSFs27myiZ-52" value="description" style="ellipse;whiteSpace=wrap;html=1;fillColor=#a0522d;fontColor=#ffffff;strokeColor=#6D1F00;" vertex="1" parent="WIyWlLk6GJQsqaUBKTNV-1">
          <mxGeometry x="850" y="670" width="100" height="60" as="geometry" />
        </mxCell>
        <mxCell id="mrrCmg68fBbSFs27myiZ-53" style="edgeStyle=orthogonalEdgeStyle;rounded=0;orthogonalLoop=1;jettySize=auto;html=1;entryX=0.75;entryY=1;entryDx=0;entryDy=0;" edge="1" parent="WIyWlLk6GJQsqaUBKTNV-1" source="mrrCmg68fBbSFs27myiZ-54" target="mrrCmg68fBbSFs27myiZ-24">
          <mxGeometry relative="1" as="geometry" />
        </mxCell>
        <mxCell id="mrrCmg68fBbSFs27myiZ-54" value="heads" style="rhombus;whiteSpace=wrap;html=1;fillColor=#d5e8d4;strokeColor=#82b366;" vertex="1" parent="WIyWlLk6GJQsqaUBKTNV-1">
          <mxGeometry x="670" y="460" width="100" height="60" as="geometry" />
        </mxCell>
        <mxCell id="mrrCmg68fBbSFs27myiZ-55" style="edgeStyle=orthogonalEdgeStyle;rounded=0;orthogonalLoop=1;jettySize=auto;html=1;entryX=0.45;entryY=0.075;entryDx=0;entryDy=0;entryPerimeter=0;" edge="1" parent="WIyWlLk6GJQsqaUBKTNV-1" source="mrrCmg68fBbSFs27myiZ-54" target="mrrCmg68fBbSFs27myiZ-34">
          <mxGeometry relative="1" as="geometry" />
        </mxCell>
        <mxCell id="mrrCmg68fBbSFs27myiZ-56" value="&lt;font style=&quot;font-size: 25px;&quot;&gt;N&lt;/font&gt;" style="text;html=1;align=center;verticalAlign=middle;whiteSpace=wrap;rounded=0;fontColor=#FF0303;" vertex="1" parent="WIyWlLk6GJQsqaUBKTNV-1">
          <mxGeometry x="160" y="280" width="60" height="30" as="geometry" />
        </mxCell>
        <mxCell id="mrrCmg68fBbSFs27myiZ-57" value="&lt;font color=&quot;#ff0000&quot; style=&quot;font-size: 25px;&quot;&gt;1&lt;/font&gt;" style="text;html=1;align=center;verticalAlign=middle;resizable=0;points=[];autosize=1;strokeColor=none;fillColor=none;" vertex="1" parent="WIyWlLk6GJQsqaUBKTNV-1">
          <mxGeometry x="170" y="363" width="40" height="40" as="geometry" />
        </mxCell>
        <mxCell id="mrrCmg68fBbSFs27myiZ-58" value="&lt;font color=&quot;#ff0000&quot; style=&quot;font-size: 25px;&quot;&gt;1&lt;/font&gt;" style="text;html=1;align=center;verticalAlign=middle;resizable=0;points=[];autosize=1;strokeColor=none;fillColor=none;" vertex="1" parent="WIyWlLk6GJQsqaUBKTNV-1">
          <mxGeometry x="720" y="420" width="40" height="40" as="geometry" />
        </mxCell>
        <mxCell id="mrrCmg68fBbSFs27myiZ-59" value="&lt;font color=&quot;#ff0000&quot; style=&quot;font-size: 25px;&quot;&gt;1&lt;/font&gt;" style="text;html=1;align=center;verticalAlign=middle;resizable=0;points=[];autosize=1;strokeColor=none;fillColor=none;" vertex="1" parent="WIyWlLk6GJQsqaUBKTNV-1">
          <mxGeometry x="730" y="500" width="40" height="40" as="geometry" />
        </mxCell>
        <mxCell id="mrrCmg68fBbSFs27myiZ-60" value="&lt;font style=&quot;font-size: 25px;&quot;&gt;N&lt;/font&gt;" style="text;html=1;align=center;verticalAlign=middle;whiteSpace=wrap;rounded=0;fontColor=#FF0303;" vertex="1" parent="WIyWlLk6GJQsqaUBKTNV-1">
          <mxGeometry x="560" y="562.5" width="60" height="30" as="geometry" />
        </mxCell>
        <mxCell id="mrrCmg68fBbSFs27myiZ-61" value="&lt;font style=&quot;font-size: 25px;&quot;&gt;N&lt;/font&gt;" style="text;html=1;align=center;verticalAlign=middle;whiteSpace=wrap;rounded=0;fontColor=#FF0303;" vertex="1" parent="WIyWlLk6GJQsqaUBKTNV-1">
          <mxGeometry x="670" y="562.5" width="60" height="30" as="geometry" />
        </mxCell>
        <mxCell id="mrrCmg68fBbSFs27myiZ-62" value="&lt;font color=&quot;#ff0000&quot; style=&quot;font-size: 25px;&quot;&gt;1&lt;/font&gt;" style="text;html=1;align=center;verticalAlign=middle;resizable=0;points=[];autosize=1;strokeColor=none;fillColor=none;" vertex="1" parent="WIyWlLk6GJQsqaUBKTNV-1">
          <mxGeometry x="1130" y="532.5" width="40" height="40" as="geometry" />
        </mxCell>
        <mxCell id="mrrCmg68fBbSFs27myiZ-63" value="&lt;font color=&quot;#ff0000&quot; style=&quot;font-size: 25px;&quot;&gt;1&lt;/font&gt;" style="text;html=1;align=center;verticalAlign=middle;resizable=0;points=[];autosize=1;strokeColor=none;fillColor=none;" vertex="1" parent="WIyWlLk6GJQsqaUBKTNV-1">
          <mxGeometry x="1120" y="360" width="40" height="40" as="geometry" />
        </mxCell>
        <mxCell id="mrrCmg68fBbSFs27myiZ-64" value="&lt;font color=&quot;#ff0000&quot; style=&quot;font-size: 25px;&quot;&gt;1&lt;/font&gt;" style="text;html=1;align=center;verticalAlign=middle;resizable=0;points=[];autosize=1;strokeColor=none;fillColor=none;" vertex="1" parent="WIyWlLk6GJQsqaUBKTNV-1">
          <mxGeometry x="1201" y="660" width="40" height="40" as="geometry" />
        </mxCell>
        <mxCell id="mrrCmg68fBbSFs27myiZ-65" value="&lt;font style=&quot;font-size: 25px;&quot;&gt;N&lt;/font&gt;" style="text;html=1;align=center;verticalAlign=middle;whiteSpace=wrap;rounded=0;fontColor=#FF0303;" vertex="1" parent="WIyWlLk6GJQsqaUBKTNV-1">
          <mxGeometry x="970" y="370" width="60" height="30" as="geometry" />
        </mxCell>
        <mxCell id="mrrCmg68fBbSFs27myiZ-66" value="&lt;font style=&quot;font-size: 25px;&quot;&gt;N&lt;/font&gt;" style="text;html=1;align=center;verticalAlign=middle;whiteSpace=wrap;rounded=0;fontColor=#FF0303;" vertex="1" parent="WIyWlLk6GJQsqaUBKTNV-1">
          <mxGeometry x="980" y="530" width="60" height="30" as="geometry" />
        </mxCell>
        <mxCell id="mrrCmg68fBbSFs27myiZ-67" value="&lt;font style=&quot;font-size: 25px;&quot;&gt;N&lt;/font&gt;" style="text;html=1;align=center;verticalAlign=middle;whiteSpace=wrap;rounded=0;fontColor=#FF0303;" vertex="1" parent="WIyWlLk6GJQsqaUBKTNV-1">
          <mxGeometry x="1050" y="645" width="60" height="30" as="geometry" />
        </mxCell>
        <mxCell id="mrrCmg68fBbSFs27myiZ-68" value="&lt;font style=&quot;font-size: 25px;&quot;&gt;N&lt;/font&gt;" style="text;html=1;align=center;verticalAlign=middle;whiteSpace=wrap;rounded=0;fontColor=#FF0303;" vertex="1" parent="WIyWlLk6GJQsqaUBKTNV-1">
          <mxGeometry x="480" y="390" width="60" height="30" as="geometry" />
        </mxCell>
        <mxCell id="mrrCmg68fBbSFs27myiZ-69" value="&lt;font style=&quot;font-size: 25px;&quot;&gt;N&lt;/font&gt;" style="text;html=1;align=center;verticalAlign=middle;whiteSpace=wrap;rounded=0;fontColor=#FF0303;" vertex="1" parent="WIyWlLk6GJQsqaUBKTNV-1">
          <mxGeometry x="480" y="502.5" width="60" height="30" as="geometry" />
        </mxCell>
        <mxCell id="mrrCmg68fBbSFs27myiZ-71" value="" style="endArrow=none;html=1;rounded=0;" edge="1" parent="WIyWlLk6GJQsqaUBKTNV-1">
          <mxGeometry width="50" height="50" relative="1" as="geometry">
            <mxPoint x="410" y="610" as="sourcePoint" />
            <mxPoint x="430" y="600" as="targetPoint" />
          </mxGeometry>
        </mxCell>
        <mxCell id="mrrCmg68fBbSFs27myiZ-72" value="" style="endArrow=none;html=1;rounded=0;" edge="1" parent="WIyWlLk6GJQsqaUBKTNV-1">
          <mxGeometry width="50" height="50" relative="1" as="geometry">
            <mxPoint x="410" y="620" as="sourcePoint" />
            <mxPoint x="430" y="630" as="targetPoint" />
          </mxGeometry>
        </mxCell>
        <mxCell id="mrrCmg68fBbSFs27myiZ-73" value="" style="endArrow=none;html=1;rounded=0;" edge="1" parent="WIyWlLk6GJQsqaUBKTNV-1">
          <mxGeometry width="50" height="50" relative="1" as="geometry">
            <mxPoint x="390" y="630" as="sourcePoint" />
            <mxPoint x="390" y="600" as="targetPoint" />
          </mxGeometry>
        </mxCell>
        <mxCell id="mrrCmg68fBbSFs27myiZ-74" value="" style="endArrow=none;html=1;rounded=0;" edge="1" parent="WIyWlLk6GJQsqaUBKTNV-1">
          <mxGeometry width="50" height="50" relative="1" as="geometry">
            <mxPoint x="330" y="280" as="sourcePoint" />
            <mxPoint x="320" y="260" as="targetPoint" />
          </mxGeometry>
        </mxCell>
        <mxCell id="mrrCmg68fBbSFs27myiZ-75" value="" style="endArrow=none;html=1;rounded=0;" edge="1" parent="WIyWlLk6GJQsqaUBKTNV-1">
          <mxGeometry width="50" height="50" relative="1" as="geometry">
            <mxPoint x="350" y="280" as="sourcePoint" />
            <mxPoint x="360" y="260" as="targetPoint" />
          </mxGeometry>
        </mxCell>
        <mxCell id="mrrCmg68fBbSFs27myiZ-76" value="" style="endArrow=none;html=1;rounded=0;" edge="1" parent="WIyWlLk6GJQsqaUBKTNV-1">
          <mxGeometry width="50" height="50" relative="1" as="geometry">
            <mxPoint x="320" y="300" as="sourcePoint" />
            <mxPoint x="360" y="300" as="targetPoint" />
          </mxGeometry>
        </mxCell>
        <mxCell id="mrrCmg68fBbSFs27myiZ-77" value="&lt;font style=&quot;font-size: 21px;&quot;&gt;Enrolls&lt;/font&gt;" style="text;html=1;align=center;verticalAlign=middle;whiteSpace=wrap;rounded=0;fontColor=#FF0019;" vertex="1" parent="WIyWlLk6GJQsqaUBKTNV-1">
          <mxGeometry x="310" y="485" width="60" height="30" as="geometry" />
        </mxCell>
      </root>
    </mxGraphModel>
  </diagram>
</mxfile>
